<svg preserveAspectRatio="none" width="100%" height="100%" overflow="visible" style="display: block;" viewBox="0 0 152.755 28" fill="none" xmlns="http://www.w3.org/2000/svg">
<g id="Frame 2147226064">
<line id="Line 4" x1="0.500001" y1="2.18557e-08" x2="0.5" y2="28" stroke="var(--stroke-0, #1A1A1A)" stroke-opacity="0.1"/>
<g id="Frame">
<path id="Vector" d="M26.1761 6H28.9362L22.9061 12.7774L30 22H24.4456L20.0951 16.4066L15.1172 22H12.3554L18.8052 14.7508L12 6H17.6955L21.6279 11.1126L26.1761 6ZM25.2073 20.3754H26.7368L16.8644 7.53928H15.2232L25.2073 20.3754Z" fill="var(--fill-0, #1A1A1A)"/>
</g>
<line id="Line 5" x1="42.5" y1="2.18557e-08" x2="42.5" y2="28" stroke="var(--stroke-0, #1A1A1A)" stroke-opacity="0.1"/>
<g id="Frame_2">
<path id="Vector_2" fill-rule="evenodd" clip-rule="evenodd" d="M69.5404 6.33992L71.0004 6.48992C72.7289 6.6853 74.0268 8.16065 74.0004 9.89993V18.0999C74.0268 19.8392 72.7289 21.3145 71.0004 21.51L69.6004 21.66C65.2319 22.1099 60.8288 22.1099 56.4604 21.66L55.0004 21.51C53.2719 21.3145 51.974 19.8392 52.0004 18.0999V9.89993C51.974 8.16065 53.2719 6.6853 55.0004 6.48992L56.4004 6.33992C60.7688 5.88995 65.1719 5.88995 69.5404 6.33992ZM62.1104 17.22L66.0004 14.6199H66.0604C66.27 14.4834 66.3964 14.2501 66.3964 13.9999C66.3964 13.7497 66.27 13.5165 66.0604 13.3799L62.1704 10.7799C61.9407 10.6247 61.6442 10.6088 61.3992 10.7386C61.1543 10.8684 61.0009 11.1227 61.0004 11.3999V16.5999C61.0133 16.8579 61.1581 17.0912 61.3837 17.2172C61.6093 17.3432 61.8839 17.3443 62.1104 17.22Z" fill="var(--fill-0, #1A1A1A)"/>
</g>
<line id="Line 7" x1="84.5" y1="2.18557e-08" x2="84.5" y2="28" stroke="var(--stroke-0, #1A1A1A)" stroke-opacity="0.1"/>
<g id="Frame_3">
<path id="Vector_3" fill-rule="evenodd" clip-rule="evenodd" d="M98 5H112C113.105 5 114 5.89543 114 7V21C114 22.1046 113.105 23 112 23H98C96.8954 23 96 22.1046 96 21V7C96 5.89543 96.8954 5 98 5ZM101 20C101.276 20 101.5 19.7762 101.5 19.5V12.5C101.5 12.2239 101.276 12 101 12H99.5C99.2239 12 99 12.2239 99 12.5V19.5C99 19.7762 99.2239 20 99.5 20H101ZM100.25 11C99.4216 11 98.75 10.3284 98.75 9.5C98.75 8.67157 99.4216 8 100.25 8C101.078 8 101.75 8.67157 101.75 9.5C101.75 10.3284 101.078 11 100.25 11ZM110.5 20C110.776 20 111 19.7762 111 19.5V14.9C111.032 13.3108 109.858 11.9545 108.28 11.76C107.177 11.6592 106.108 12.1744 105.5 13.1V12.5C105.5 12.2239 105.276 12 105 12H103.5C103.224 12 103 12.2239 103 12.5V19.5C103 19.7762 103.224 20 103.5 20H105C105.276 20 105.5 19.7762 105.5 19.5V15.75C105.5 14.9216 106.172 14.25 107 14.25C107.828 14.25 108.5 14.9216 108.5 15.75V19.5C108.5 19.7762 108.724 20 109 20H110.5Z" fill="var(--fill-0, #1A1A1A)"/>
</g>
<line id="Line 10" x1="126.5" y1="2.18557e-08" x2="126.5" y2="28" stroke="var(--stroke-0, #1A1A1A)" stroke-opacity="0.1"/>
<g id="Group">
<path id="Vector_4" d="M148.312 5.5H139.443C136.993 5.5 135 7.49321 135 9.9433V18.0567C135 20.5068 136.993 22.5 139.443 22.5H148.312C150.762 22.5 152.755 20.5068 152.755 18.0567V9.9433C152.755 7.49321 150.762 5.5 148.312 5.5ZM136.567 9.9433C136.567 8.35777 137.858 7.06745 139.443 7.06745H148.312C149.897 7.06745 151.188 8.35777 151.188 9.9433V18.0567C151.188 19.6422 149.897 20.9325 148.312 20.9325H139.443C137.858 20.9325 136.567 19.6422 136.567 18.0567V9.9433Z" fill="var(--fill-0, #1A1A1A)"/>
<path id="Vector_5" d="M143.878 18.1318C146.156 18.1318 148.011 16.2782 148.011 13.9988C148.011 11.7194 146.157 9.86575 143.878 9.86575C141.598 9.86575 139.745 11.7194 139.745 13.9988C139.745 16.2782 141.598 18.1318 143.878 18.1318ZM143.878 11.4342C145.293 11.4342 146.443 12.5849 146.443 13.9998C146.443 15.4146 145.293 16.5653 143.878 16.5653C142.463 16.5653 141.312 15.4146 141.312 13.9998C141.312 12.5849 142.463 11.4342 143.878 11.4342Z" fill="var(--fill-0, #1A1A1A)"/>
<path id="Vector_6" d="M148.393 10.5325C149.007 10.5325 149.507 10.0334 149.507 9.41891C149.507 8.80438 149.008 8.30532 148.393 8.30532C147.779 8.30532 147.28 8.80438 147.28 9.41891C147.28 10.0334 147.779 10.5325 148.393 10.5325Z" fill="var(--fill-0, #1A1A1A)"/>
</g>
</g>
</svg>
