<svg preserveAspectRatio="none" width="100%" height="100%" overflow="visible" style="display: block;" viewBox="0 0 2280.5 2865" fill="none" xmlns="http://www.w3.org/2000/svg">
<g id="Frame 2147226390">
<line id="Line 1" x1="0.999937" y1="2.18557e-08" x2="1.00006" y2="2865" stroke="var(--stroke-0, black)" stroke-opacity="0.06"/>
<line id="Line 2" x1="53.9999" y1="2.18557e-08" x2="54.0001" y2="2865" stroke="var(--stroke-0, black)" stroke-opacity="0.06"/>
<line id="Line 3" x1="107" y1="2.18557e-08" x2="107" y2="2865" stroke="var(--stroke-0, black)" stroke-opacity="0.06"/>
<line id="Line 4" x1="160" y1="2.18557e-08" x2="160" y2="2865" stroke="var(--stroke-0, black)" stroke-opacity="0.06"/>
<line id="Line 5" x1="213" y1="2.18557e-08" x2="213" y2="2865" stroke="var(--stroke-0, black)" stroke-opacity="0.06"/>
<line id="Line 6" x1="266" y1="2.18557e-08" x2="266" y2="2865" stroke="var(--stroke-0, black)" stroke-opacity="0.06"/>
<line id="Line 7" x1="319" y1="2.18557e-08" x2="319" y2="2865" stroke="var(--stroke-0, black)" stroke-opacity="0.06"/>
<line id="Line 8" x1="372" y1="2.18557e-08" x2="372" y2="2865" stroke="var(--stroke-0, black)" stroke-opacity="0.06"/>
<line id="Line 9" x1="425" y1="2.18557e-08" x2="425" y2="2865" stroke="var(--stroke-0, black)" stroke-opacity="0.06"/>
<line id="Line 10" x1="478" y1="2.18557e-08" x2="478" y2="2865" stroke="var(--stroke-0, black)" stroke-opacity="0.06"/>
<line id="Line 11" x1="531" y1="2.18557e-08" x2="531" y2="2865" stroke="var(--stroke-0, black)" stroke-opacity="0.06"/>
<line id="Line 12" x1="584" y1="2.18557e-08" x2="584" y2="2865" stroke="var(--stroke-0, black)" stroke-opacity="0.06"/>
<line id="Line 13" x1="637" y1="2.18557e-08" x2="637" y2="2865" stroke="var(--stroke-0, black)" stroke-opacity="0.06"/>
<line id="Line 14" x1="690" y1="2.18557e-08" x2="690" y2="2865" stroke="var(--stroke-0, black)" stroke-opacity="0.06"/>
<line id="Line 15" x1="743" y1="2.18557e-08" x2="743" y2="2865" stroke="var(--stroke-0, black)" stroke-opacity="0.06"/>
<line id="Line 16" x1="796" y1="2.18557e-08" x2="796" y2="2865" stroke="var(--stroke-0, black)" stroke-opacity="0.06"/>
<line id="Line 17" x1="849" y1="2.18557e-08" x2="849" y2="2865" stroke="var(--stroke-0, black)" stroke-opacity="0.06"/>
<line id="Line 18" x1="902" y1="2.18557e-08" x2="902" y2="2865" stroke="var(--stroke-0, black)" stroke-opacity="0.06"/>
<line id="Line 19" x1="955" y1="2.18557e-08" x2="955" y2="2865" stroke="var(--stroke-0, black)" stroke-opacity="0.06"/>
<line id="Line 20" x1="1008" y1="2.18557e-08" x2="1008" y2="2865" stroke="var(--stroke-0, black)" stroke-opacity="0.06"/>
<line id="Line 21" x1="1061" y1="2.18557e-08" x2="1061" y2="2865" stroke="var(--stroke-0, black)" stroke-opacity="0.06"/>
<line id="Line 22" x1="1114" y1="2.18557e-08" x2="1114" y2="2865" stroke="var(--stroke-0, black)" stroke-opacity="0.06"/>
<line id="Line 23" x1="1167" y1="2.18557e-08" x2="1167" y2="2865" stroke="var(--stroke-0, black)" stroke-opacity="0.06"/>
<line id="Line 24" x1="1220" y1="2.18557e-08" x2="1220" y2="2865" stroke="var(--stroke-0, black)" stroke-opacity="0.06"/>
<line id="Line 25" x1="1273" y1="2.18557e-08" x2="1273" y2="2865" stroke="var(--stroke-0, black)" stroke-opacity="0.06"/>
<line id="Line 26" x1="1326" y1="2.18557e-08" x2="1326" y2="2865" stroke="var(--stroke-0, black)" stroke-opacity="0.06"/>
<line id="Line 27" x1="1379" y1="2.18557e-08" x2="1379" y2="2865" stroke="var(--stroke-0, black)" stroke-opacity="0.06"/>
<line id="Line 28" x1="1432" y1="2.18557e-08" x2="1432" y2="2865" stroke="var(--stroke-0, black)" stroke-opacity="0.06"/>
<line id="Line 29" x1="1485" y1="2.18557e-08" x2="1485" y2="2865" stroke="var(--stroke-0, black)" stroke-opacity="0.06"/>
<line id="Line 30" x1="1538" y1="2.18557e-08" x2="1538" y2="2865" stroke="var(--stroke-0, black)" stroke-opacity="0.06"/>
<line id="Line 31" x1="1591" y1="2.18557e-08" x2="1591" y2="2865" stroke="var(--stroke-0, black)" stroke-opacity="0.06"/>
<line id="Line 32" x1="1644" y1="2.18557e-08" x2="1644" y2="2865" stroke="var(--stroke-0, black)" stroke-opacity="0.06"/>
<line id="Line 33" x1="1697" y1="2.18557e-08" x2="1697" y2="2865" stroke="var(--stroke-0, black)" stroke-opacity="0.06"/>
<line id="Line 34" x1="1750" y1="2.18557e-08" x2="1750" y2="2865" stroke="var(--stroke-0, black)" stroke-opacity="0.06"/>
<line id="Line 35" x1="1803" y1="2.18557e-08" x2="1803" y2="2865" stroke="var(--stroke-0, black)" stroke-opacity="0.06"/>
<line id="Line 36" x1="1856" y1="2.18557e-08" x2="1856" y2="2865" stroke="var(--stroke-0, black)" stroke-opacity="0.06"/>
<line id="Line 37" x1="1909" y1="2.18557e-08" x2="1909" y2="2865" stroke="var(--stroke-0, black)" stroke-opacity="0.06"/>
<line id="Line 38" x1="1962" y1="2.18557e-08" x2="1962" y2="2865" stroke="var(--stroke-0, black)" stroke-opacity="0.06"/>
<line id="Line 39" x1="2015" y1="2.18557e-08" x2="2015" y2="2865" stroke="var(--stroke-0, black)" stroke-opacity="0.06"/>
<line id="Line 40" x1="2068" y1="2.18557e-08" x2="2068" y2="2865" stroke="var(--stroke-0, black)" stroke-opacity="0.06"/>
<line id="Line 41" x1="2121" y1="2.18557e-08" x2="2121" y2="2865" stroke="var(--stroke-0, black)" stroke-opacity="0.06"/>
<line id="Line 42" x1="2174" y1="2.18557e-08" x2="2174" y2="2865" stroke="var(--stroke-0, black)" stroke-opacity="0.06"/>
<line id="Line 43" x1="2227" y1="2.18557e-08" x2="2227" y2="2865" stroke="var(--stroke-0, black)" stroke-opacity="0.06"/>
<line id="Line 44" x1="2280" y1="2.18557e-08" x2="2280" y2="2865" stroke="var(--stroke-0, black)" stroke-opacity="0.06"/>
</g>
</svg>
