<svg preserveAspectRatio="none" width="100%" height="100%" overflow="visible" style="display: block;" viewBox="0 0 2237 1499" fill="none" xmlns="http://www.w3.org/2000/svg">
<g id="Frame 2147226389">
<line id="Line 1" x1="0.5" y1="2.18557e-08" x2="0.500066" y2="1499" stroke="var(--stroke-0, black)" stroke-opacity="0.06"/>
<line id="Line 2" x1="52.5001" y1="6.1057e-05" x2="52.5001" y2="1499" stroke="var(--stroke-0, black)" stroke-opacity="0.06"/>
<line id="Line 3" x1="104.5" y1="6.1057e-05" x2="104.5" y2="1499" stroke="var(--stroke-0, black)" stroke-opacity="0.06"/>
<line id="Line 4" x1="156.5" y1="6.1057e-05" x2="156.5" y2="1499" stroke="var(--stroke-0, black)" stroke-opacity="0.06"/>
<line id="Line 5" x1="208.5" y1="6.1057e-05" x2="208.5" y2="1499" stroke="var(--stroke-0, black)" stroke-opacity="0.06"/>
<line id="Line 6" x1="260.5" y1="6.1057e-05" x2="260.5" y2="1499" stroke="var(--stroke-0, black)" stroke-opacity="0.06"/>
<line id="Line 7" x1="312.5" y1="6.1057e-05" x2="312.5" y2="1499" stroke="var(--stroke-0, black)" stroke-opacity="0.06"/>
<line id="Line 8" x1="364.5" y1="6.1057e-05" x2="364.501" y2="1499" stroke="var(--stroke-0, black)" stroke-opacity="0.06"/>
<line id="Line 9" x1="416.501" y1="6.1057e-05" x2="416.501" y2="1499" stroke="var(--stroke-0, black)" stroke-opacity="0.06"/>
<line id="Line 10" x1="468.501" y1="6.1057e-05" x2="468.501" y2="1499" stroke="var(--stroke-0, black)" stroke-opacity="0.06"/>
<line id="Line 11" x1="520.501" y1="6.1057e-05" x2="520.501" y2="1499" stroke="var(--stroke-0, black)" stroke-opacity="0.06"/>
<line id="Line 12" x1="572.501" y1="6.1057e-05" x2="572.501" y2="1499" stroke="var(--stroke-0, black)" stroke-opacity="0.06"/>
<line id="Line 13" x1="624.501" y1="6.1057e-05" x2="624.501" y2="1499" stroke="var(--stroke-0, black)" stroke-opacity="0.06"/>
<line id="Line 14" x1="676.501" y1="6.1057e-05" x2="676.501" y2="1499" stroke="var(--stroke-0, black)" stroke-opacity="0.06"/>
<line id="Line 15" x1="728.501" y1="6.1057e-05" x2="728.501" y2="1499" stroke="var(--stroke-0, black)" stroke-opacity="0.06"/>
<line id="Line 16" x1="780.501" y1="6.1057e-05" x2="780.501" y2="1499" stroke="var(--stroke-0, black)" stroke-opacity="0.06"/>
<line id="Line 17" x1="832.501" y1="6.1057e-05" x2="832.501" y2="1499" stroke="var(--stroke-0, black)" stroke-opacity="0.06"/>
<line id="Line 18" x1="884.501" y1="6.1057e-05" x2="884.501" y2="1499" stroke="var(--stroke-0, black)" stroke-opacity="0.06"/>
<line id="Line 19" x1="936.501" y1="6.1057e-05" x2="936.501" y2="1499" stroke="var(--stroke-0, black)" stroke-opacity="0.06"/>
<line id="Line 20" x1="988.501" y1="6.1057e-05" x2="988.501" y2="1499" stroke="var(--stroke-0, black)" stroke-opacity="0.06"/>
<line id="Line 21" x1="1040.5" y1="6.1057e-05" x2="1040.5" y2="1499" stroke="var(--stroke-0, black)" stroke-opacity="0.06"/>
<line id="Line 22" x1="1092.5" y1="6.1057e-05" x2="1092.5" y2="1499" stroke="var(--stroke-0, black)" stroke-opacity="0.06"/>
<line id="Line 23" x1="1144.5" y1="6.1057e-05" x2="1144.5" y2="1499" stroke="var(--stroke-0, black)" stroke-opacity="0.06"/>
<line id="Line 24" x1="1196.5" y1="6.1057e-05" x2="1196.5" y2="1499" stroke="var(--stroke-0, black)" stroke-opacity="0.06"/>
<line id="Line 25" x1="1248.5" y1="6.1057e-05" x2="1248.5" y2="1499" stroke="var(--stroke-0, black)" stroke-opacity="0.06"/>
<line id="Line 26" x1="1300.5" y1="6.1057e-05" x2="1300.5" y2="1499" stroke="var(--stroke-0, black)" stroke-opacity="0.06"/>
<line id="Line 27" x1="1352.5" y1="6.1057e-05" x2="1352.5" y2="1499" stroke="var(--stroke-0, black)" stroke-opacity="0.06"/>
<line id="Line 28" x1="1404.5" y1="6.1057e-05" x2="1404.5" y2="1499" stroke="var(--stroke-0, black)" stroke-opacity="0.06"/>
<line id="Line 29" x1="1456.5" y1="6.1057e-05" x2="1456.5" y2="1499" stroke="var(--stroke-0, black)" stroke-opacity="0.06"/>
<line id="Line 30" x1="1508.5" y1="6.1057e-05" x2="1508.5" y2="1499" stroke="var(--stroke-0, black)" stroke-opacity="0.06"/>
<line id="Line 31" x1="1560.5" y1="6.1057e-05" x2="1560.5" y2="1499" stroke="var(--stroke-0, black)" stroke-opacity="0.06"/>
<line id="Line 32" x1="1612.5" y1="6.1057e-05" x2="1612.5" y2="1499" stroke="var(--stroke-0, black)" stroke-opacity="0.06"/>
<line id="Line 33" x1="1664.5" y1="6.1057e-05" x2="1664.5" y2="1499" stroke="var(--stroke-0, black)" stroke-opacity="0.06"/>
<line id="Line 34" x1="1716.5" y1="6.1057e-05" x2="1716.5" y2="1499" stroke="var(--stroke-0, black)" stroke-opacity="0.06"/>
<line id="Line 35" x1="1768.5" y1="6.1057e-05" x2="1768.5" y2="1499" stroke="var(--stroke-0, black)" stroke-opacity="0.06"/>
<line id="Line 36" x1="1820.5" y1="6.1057e-05" x2="1820.5" y2="1499" stroke="var(--stroke-0, black)" stroke-opacity="0.06"/>
<line id="Line 37" x1="1872.5" y1="6.1057e-05" x2="1872.5" y2="1499" stroke="var(--stroke-0, black)" stroke-opacity="0.06"/>
<line id="Line 38" x1="1924.5" y1="6.1057e-05" x2="1924.5" y2="1499" stroke="var(--stroke-0, black)" stroke-opacity="0.06"/>
<line id="Line 39" x1="1976.5" y1="6.1057e-05" x2="1976.5" y2="1499" stroke="var(--stroke-0, black)" stroke-opacity="0.06"/>
<line id="Line 40" x1="2028.5" y1="6.1057e-05" x2="2028.5" y2="1499" stroke="var(--stroke-0, black)" stroke-opacity="0.06"/>
<line id="Line 41" x1="2080.5" y1="6.1057e-05" x2="2080.5" y2="1499" stroke="var(--stroke-0, black)" stroke-opacity="0.06"/>
<line id="Line 42" x1="2132.5" y1="6.1057e-05" x2="2132.5" y2="1499" stroke="var(--stroke-0, black)" stroke-opacity="0.06"/>
<line id="Line 43" x1="2184.5" y1="6.1057e-05" x2="2184.5" y2="1499" stroke="var(--stroke-0, black)" stroke-opacity="0.06"/>
<line id="Line 44" x1="2236.5" y1="6.1057e-05" x2="2236.5" y2="1499" stroke="var(--stroke-0, black)" stroke-opacity="0.06"/>
</g>
</svg>
