<svg preserveAspectRatio="none" width="100%" height="100%" overflow="visible" style="display: block;" viewBox="0 0 275 181" fill="none" xmlns="http://www.w3.org/2000/svg">
<g id="Frame" clip-path="url(#clip0_4_13)">
<g id="Group" filter="url(#filter0_f_4_13)">
<path id="Vector" d="M80.1877 -19.2501C104.954 23.8469 178.4 73.7929 230.17 59.8799C281.94 45.9659 296.518 -38.7721 271.751 -81.8681C246.985 -124.965 192.254 -110.1 140.484 -96.1861C88.7137 -82.2731 55.4217 -62.3461 80.1877 -19.2501Z" fill="url(#paint0_radial_4_13)"/>
</g>
<g id="Group_2" opacity="0.3" filter="url(#filter1_f_4_13)">
<path id="Vector_2" d="M256.831 75.3651C188.92 62.5421 96.4983 30.2901 100.102 11.1981C103.707 -7.89193 217.842 -7.27493 285.753 5.54807C353.665 18.3701 349.637 38.5421 346.032 57.6331C342.428 76.7241 324.743 88.1871 256.831 75.3651Z" fill="url(#paint1_radial_4_13)"/>
</g>
<path id="Vector_3" d="M269.551 21.418H256.801C253.28 21.418 250.426 18.5638 250.426 15.043V2.293C250.426 -1.22782 253.28 -4.082 256.801 -4.082H269.551C273.072 -4.082 275.926 -1.22782 275.926 2.293V15.043C275.926 18.5638 273.072 21.418 269.551 21.418Z" fill="var(--fill-0, white)" fill-opacity="0.64"/>
<path id="Vector_4" d="M218.551 21.418H205.801C202.28 21.418 199.426 18.5638 199.426 15.043V2.293C199.426 -1.22782 202.28 -4.082 205.801 -4.082H218.551C222.072 -4.082 224.926 -1.22782 224.926 2.293V15.043C224.926 18.5638 222.072 21.418 218.551 21.418Z" fill="var(--fill-0, white)" fill-opacity="0.64"/>
<path id="Vector_5" d="M244.051 46.598H231.301C227.78 46.598 224.926 43.7438 224.926 40.223V27.473C224.926 23.9522 227.78 21.098 231.301 21.098H244.051C247.572 21.098 250.426 23.9522 250.426 27.473V40.223C250.426 43.7438 247.572 46.598 244.051 46.598Z" fill="var(--fill-0, white)" fill-opacity="0.64"/>
<path id="Vector_6" d="M167.555 21.0979H154.805C151.284 21.0979 148.43 18.2437 148.43 14.7229V1.9729C148.43 -1.54791 151.284 -4.4021 154.805 -4.4021H167.555C171.076 -4.4021 173.93 -1.54791 173.93 1.9729V14.7229C173.93 18.2437 171.076 21.0979 167.555 21.0979Z" fill="var(--fill-0, white)" fill-opacity="0.64"/>
<path id="Vector_7" d="M116.555 21.0979H103.805C100.284 21.0979 97.4297 18.2437 97.4297 14.7229V1.9729C97.4297 -1.54791 100.284 -4.4021 103.805 -4.4021H116.555C120.076 -4.4021 122.93 -1.54791 122.93 1.9729V14.7229C122.93 18.2437 120.076 21.0979 116.555 21.0979Z" fill="var(--fill-0, white)" fill-opacity="0.64"/>
<path id="Vector_8" d="M193.051 46.28H180.301C176.78 46.28 173.926 43.4258 173.926 39.905V27.155C173.926 23.6342 176.78 20.78 180.301 20.78H193.051C196.572 20.78 199.426 23.6342 199.426 27.155V39.905C199.426 43.4258 196.572 46.28 193.051 46.28Z" fill="var(--fill-0, white)" fill-opacity="0.64"/>
<path id="Vector_9" d="M218.551 71.777H205.801C202.28 71.777 199.426 68.9228 199.426 65.402V52.652C199.426 49.1312 202.28 46.277 205.801 46.277H218.551C222.072 46.277 224.926 49.1312 224.926 52.652V65.402C224.926 68.9228 222.072 71.777 218.551 71.777Z" fill="var(--fill-0, white)" fill-opacity="0.64"/>
<path id="Vector_10" d="M244.051 97.28H231.301C227.78 97.28 224.926 94.4258 224.926 90.905V78.155C224.926 74.6342 227.78 71.78 231.301 71.78H244.051C247.572 71.78 250.426 74.6342 250.426 78.155V90.905C250.426 94.4258 247.572 97.28 244.051 97.28Z" fill="var(--fill-0, white)" fill-opacity="0.64"/>
<path id="Vector_11" d="M269.551 71.777H256.801C253.28 71.777 250.426 68.9228 250.426 65.402V52.652C250.426 49.1312 253.28 46.277 256.801 46.277H269.551C273.072 46.277 275.926 49.1312 275.926 52.652V65.402C275.926 68.9228 273.072 71.777 269.551 71.777Z" fill="var(--fill-0, white)" fill-opacity="0.64"/>
<path id="Vector_12" d="M224.926 27.7909C224.926 26.1001 225.597 24.4786 226.793 23.2831C227.988 22.0876 229.61 21.4159 231.301 21.4159C229.61 21.4159 227.988 20.7443 226.793 19.5487C225.597 18.3532 224.926 16.7317 224.926 15.0409C224.926 16.7033 224.276 18.2999 223.116 19.4904C221.956 20.6809 220.377 21.3711 218.715 21.4139L218.551 21.4159C220.241 21.4159 221.863 22.0876 223.059 23.2831C224.254 24.4786 224.926 26.1001 224.926 27.7909ZM173.93 27.4729C173.93 25.7821 174.601 24.1606 175.797 22.9651C176.992 21.7696 178.614 21.0979 180.305 21.0979C178.614 21.0979 176.992 20.4263 175.797 19.2307C174.601 18.0352 173.93 16.4137 173.93 14.7229C173.93 16.3853 173.28 17.9819 172.12 19.1724C170.96 20.3629 169.381 21.0531 167.719 21.0959L167.555 21.0979C169.245 21.0982 170.867 21.7699 172.062 22.9654C173.258 24.1609 173.929 25.7822 173.93 27.4729ZM148.43 1.9729C148.43 0.282145 149.101 -1.33936 150.297 -2.5349C151.492 -3.73045 153.114 -4.4021 154.805 -4.4021C153.114 -4.4021 151.492 -5.07375 150.297 -6.26929C149.101 -7.46484 148.43 -9.08634 148.43 -10.7771C148.43 -9.11473 147.78 -7.51809 146.62 -6.32758C145.46 -5.13707 143.881 -4.44686 142.219 -4.4041L142.055 -4.4021C143.745 -4.4021 145.367 -3.73045 146.562 -2.5349C147.758 -1.33936 148.43 0.282145 148.43 1.9729ZM97.4297 1.9729C97.4297 0.282145 98.1013 -1.33936 99.2969 -2.5349C100.492 -3.73045 102.114 -4.4021 103.805 -4.4021C102.114 -4.4021 100.492 -5.07375 99.2969 -6.26929C98.1013 -7.46484 97.4297 -9.08634 97.4297 -10.7771C97.4297 -9.11489 96.7805 -7.51841 95.6205 -6.32793C94.4605 -5.13744 92.8813 -4.44712 91.2197 -4.4041L91.0547 -4.4021C92.7454 -4.4021 94.3669 -3.73045 95.5625 -2.5349C96.758 -1.33936 97.4297 0.282145 97.4297 1.9729ZM199.426 2.2909C199.426 0.600146 200.097 -1.02136 201.293 -2.2169C202.488 -3.41245 204.11 -4.0841 205.801 -4.0841C204.11 -4.0841 202.488 -4.75575 201.293 -5.95129C200.097 -7.14684 199.426 -8.76834 199.426 -10.4591C199.426 -8.79672 198.776 -7.20009 197.616 -6.00958C196.456 -4.81907 194.877 -4.12886 193.215 -4.0861L193.051 -4.0841C194.741 -4.0841 196.363 -3.41245 197.558 -2.2169C198.754 -1.02136 199.426 0.600146 199.426 2.2909ZM275.922 2.2909C275.922 0.600146 276.593 -1.02136 277.789 -2.2169C278.984 -3.41245 280.606 -4.0841 282.297 -4.0841C280.606 -4.0841 278.984 -4.75575 277.789 -5.95129C276.593 -7.14684 275.922 -8.76834 275.922 -10.4591C275.922 -8.79689 275.273 -7.20041 274.113 -6.00992C272.952 -4.81944 271.373 -4.12912 269.712 -4.0861L269.547 -4.0841C271.237 -4.0841 272.859 -3.41245 274.055 -2.2169C275.25 -1.02136 275.922 0.600146 275.922 2.2909ZM250.426 27.7909C250.426 26.1001 251.097 24.4786 252.293 23.2831C253.488 22.0876 255.11 21.4159 256.801 21.4159C255.11 21.4159 253.488 20.7443 252.293 19.5487C251.097 18.3532 250.426 16.7317 250.426 15.0409C250.426 16.7033 249.776 18.2999 248.616 19.4904C247.456 20.6809 245.877 21.3711 244.215 21.4139L244.051 21.4159C245.741 21.4159 247.363 22.0876 248.559 23.2831C249.754 24.4786 250.426 26.1001 250.426 27.7909Z" fill="var(--fill-0, white)" fill-opacity="0.64"/>
</g>
<defs>
<filter id="filter0_f_4_13" x="0.251053" y="-181.987" width="354.84" height="315.821" filterUnits="userSpaceOnUse" color-interpolation-filters="sRGB">
<feFlood flood-opacity="0" result="BackgroundImageFix"/>
<feBlend mode="normal" in="SourceGraphic" in2="BackgroundImageFix" result="shape"/>
<feGaussianBlur stdDeviation="35.79" result="effect1_foregroundBlur_4_13"/>
</filter>
<filter id="filter1_f_4_13" x="0" y="-103.669" width="447.706" height="284.469" filterUnits="userSpaceOnUse" color-interpolation-filters="sRGB">
<feFlood flood-opacity="0" result="BackgroundImageFix"/>
<feBlend mode="normal" in="SourceGraphic" in2="BackgroundImageFix" result="shape"/>
<feGaussianBlur stdDeviation="50" result="effect1_foregroundBlur_4_13"/>
</filter>
<radialGradient id="paint0_radial_4_13" cx="0" cy="0" r="1" gradientTransform="matrix(134.572 219.547 141.35 -40.8501 131.288 -133.063)" gradientUnits="userSpaceOnUse">
<stop offset="0.024" stop-color="#44C0C0"/>
<stop offset="0.308" stop-color="#44C0C0"/>
<stop offset="0.726" stop-color="#44C0C0" stop-opacity="0.4"/>
<stop offset="1" stop-color="#44C0C0"/>
</radialGradient>
<radialGradient id="paint1_radial_4_13" cx="0" cy="0" r="1" gradientTransform="matrix(-348.54 -68.5889 13.8467 -51.9132 400.466 63.9421)" gradientUnits="userSpaceOnUse">
<stop offset="1" stop-color="#44C0C0"/>
</radialGradient>
<clipPath id="clip0_4_13">
<rect width="275" height="181" fill="white"/>
</clipPath>
</defs>
</svg>
