<svg preserveAspectRatio="none" width="100%" height="100%" overflow="visible" style="display: block;" viewBox="0 0 249 150" fill="none" xmlns="http://www.w3.org/2000/svg">
<g id="Frame" clip-path="url(#clip0_4_211)">
<g id="Group" opacity="0.3" filter="url(#filter0_f_4_211)">
<path id="Vector" d="M80.1877 162.737C104.954 205.834 178.4 255.781 230.17 241.867C281.94 227.954 296.518 143.216 271.751 100.119C246.985 57.0233 192.254 71.8873 140.484 85.8013C88.7137 99.7143 55.4217 119.641 80.1877 162.737Z" fill="url(#paint0_radial_4_211)" fill-opacity="0.6"/>
</g>
<g id="Group_2" opacity="0.3" filter="url(#filter1_f_4_211)">
<path id="Vector_2" d="M256.831 247.352C188.92 234.529 96.4983 202.277 100.102 183.186C103.707 164.095 217.842 164.712 285.753 177.535C353.665 190.357 349.637 210.529 346.032 229.62C342.428 248.711 324.743 260.174 256.831 247.352Z" fill="url(#paint1_radial_4_211)" fill-opacity="0.8"/>
</g>
<path id="Vector_3" d="M244.051 126.905H231.301C227.78 126.905 224.926 124.051 224.926 120.53V107.78C224.926 104.259 227.78 101.405 231.301 101.405H244.051C247.572 101.405 250.426 104.259 250.426 107.78V120.53C250.426 124.051 247.572 126.905 244.051 126.905Z" fill="var(--fill-0, white)" fill-opacity="0.64"/>
<path id="Vector_4" d="M167.555 152.087H154.805C151.284 152.087 148.43 149.233 148.43 145.712V132.962C148.43 129.441 151.284 126.587 154.805 126.587H167.555C171.076 126.587 173.93 129.441 173.93 132.962V145.712C173.93 149.233 171.076 152.087 167.555 152.087Z" fill="var(--fill-0, white)" fill-opacity="0.64"/>
<path id="Vector_5" d="M116.555 152.087H103.805C100.284 152.087 97.4297 149.233 97.4297 145.712V132.962C97.4297 129.441 100.284 126.587 103.805 126.587H116.555C120.076 126.587 122.93 129.441 122.93 132.962V145.712C122.93 149.233 120.076 152.087 116.555 152.087Z" fill="var(--fill-0, white)" fill-opacity="0.64"/>
<path id="Vector_6" d="M218.551 101.087H205.801C202.28 101.087 199.426 98.2328 199.426 94.712V81.962C199.426 78.4412 202.28 75.587 205.801 75.587H218.551C222.072 75.587 224.926 78.4412 224.926 81.962V94.712C224.926 98.2328 222.072 101.087 218.551 101.087Z" fill="var(--fill-0, white)" fill-opacity="0.64"/>
<path id="Vector_7" d="M244.051 75.587H231.301C227.78 75.587 224.926 72.7328 224.926 69.212V56.462C224.926 52.9412 227.78 50.087 231.301 50.087H244.051C247.572 50.087 250.426 52.9412 250.426 56.462V69.212C250.426 72.7328 247.572 75.587 244.051 75.587Z" fill="var(--fill-0, white)" fill-opacity="0.64"/>
<path id="Vector_8" d="M193.055 126.587H180.305C176.784 126.587 173.93 123.733 173.93 120.212V107.462C173.93 103.941 176.784 101.087 180.305 101.087H193.055C196.576 101.087 199.43 103.941 199.43 107.462V120.212C199.43 123.733 196.576 126.587 193.055 126.587Z" fill="var(--fill-0, white)" fill-opacity="0.64"/>
<path id="Vector_9" d="M218.551 152.405H205.801C202.28 152.405 199.426 149.551 199.426 146.03V133.28C199.426 129.759 202.28 126.905 205.801 126.905H218.551C222.072 126.905 224.926 129.759 224.926 133.28V146.03C224.926 149.551 222.072 152.405 218.551 152.405Z" fill="var(--fill-0, white)" fill-opacity="0.64"/>
<path id="Vector_10" d="M148.43 158.462C148.43 156.771 149.101 155.15 150.297 153.954C151.492 152.759 153.114 152.087 154.805 152.087C153.114 152.087 151.492 151.415 150.297 150.22C149.101 149.024 148.43 147.403 148.43 145.712C148.429 147.374 147.78 148.971 146.62 150.161C145.46 151.352 143.88 152.042 142.219 152.085L142.055 152.087C143.745 152.087 145.367 152.759 146.562 153.954C147.758 155.15 148.43 156.771 148.43 158.462ZM97.4297 158.462C97.4297 156.771 98.1013 155.15 99.2969 153.954C100.492 152.759 102.114 152.087 103.805 152.087C102.114 152.087 100.492 151.415 99.2969 150.22C98.1013 149.024 97.4297 147.403 97.4297 145.712C97.4297 147.374 96.7805 148.971 95.6205 150.161C94.4605 151.352 92.8813 152.042 91.2197 152.085L91.0547 152.087C92.7454 152.087 94.3669 152.759 95.5625 153.954C96.758 155.15 97.4297 156.771 97.4297 158.462ZM173.93 132.962C173.93 131.271 174.601 129.65 175.797 128.454C176.992 127.259 178.614 126.587 180.305 126.587C178.614 126.587 176.992 125.915 175.797 124.72C174.601 123.524 173.93 121.903 173.93 120.212C173.929 121.874 173.28 123.471 172.12 124.661C170.96 125.852 169.38 126.542 167.719 126.585L167.555 126.587C169.245 126.587 170.867 127.259 172.062 128.454C173.258 129.65 173.93 131.271 173.93 132.962ZM224.926 133.28C224.926 131.589 225.597 129.968 226.793 128.772C227.988 127.577 229.61 126.905 231.301 126.905C229.61 126.905 227.988 126.233 226.793 125.038C225.597 123.842 224.926 122.221 224.926 120.53C224.926 122.192 224.276 123.789 223.116 124.979C221.956 126.17 220.377 126.86 218.715 126.903L218.551 126.905C220.241 126.905 221.863 127.577 223.059 128.772C224.254 129.968 224.926 131.589 224.926 133.28ZM250.426 133.28C250.426 132.443 250.591 131.614 250.911 130.84C251.231 130.067 251.701 129.364 252.293 128.772C252.885 128.18 253.588 127.711 254.361 127.39C255.135 127.07 255.964 126.905 256.801 126.905C255.11 126.905 253.488 126.233 252.293 125.038C251.097 123.842 250.426 122.221 250.426 120.53C250.426 122.192 249.776 123.789 248.616 124.979C247.456 126.17 245.877 126.86 244.215 126.903L244.051 126.905C245.741 126.905 247.363 127.577 248.559 128.772C249.754 129.968 250.426 131.589 250.426 133.28ZM199.426 158.78C199.426 157.089 200.097 155.468 201.293 154.272C202.488 153.077 204.11 152.405 205.801 152.405C204.11 152.405 202.488 151.733 201.293 150.538C200.097 149.342 199.426 147.721 199.426 146.03C199.426 147.692 198.776 149.289 197.616 150.479C196.456 151.67 194.877 152.36 193.215 152.403L193.051 152.405C194.741 152.405 196.363 153.077 197.558 154.272C198.754 155.468 199.426 157.089 199.426 158.78Z" fill="var(--fill-0, white)" fill-opacity="0.64"/>
</g>
<defs>
<filter id="filter0_f_4_211" x="0.251053" y="0.00105286" width="354.84" height="315.821" filterUnits="userSpaceOnUse" color-interpolation-filters="sRGB">
<feFlood flood-opacity="0" result="BackgroundImageFix"/>
<feBlend mode="normal" in="SourceGraphic" in2="BackgroundImageFix" result="shape"/>
<feGaussianBlur stdDeviation="35.79" result="effect1_foregroundBlur_4_211"/>
</filter>
<filter id="filter1_f_4_211" x="0" y="68.3179" width="447.706" height="284.469" filterUnits="userSpaceOnUse" color-interpolation-filters="sRGB">
<feFlood flood-opacity="0" result="BackgroundImageFix"/>
<feBlend mode="normal" in="SourceGraphic" in2="BackgroundImageFix" result="shape"/>
<feGaussianBlur stdDeviation="50" result="effect1_foregroundBlur_4_211"/>
</filter>
<radialGradient id="paint0_radial_4_211" cx="0" cy="0" r="1" gradientTransform="matrix(134.572 219.547 141.35 -40.8501 131.288 48.9243)" gradientUnits="userSpaceOnUse">
<stop offset="0.024" stop-color="#44C0C0"/>
<stop offset="0.308" stop-color="#44C0C0"/>
<stop offset="0.726" stop-color="#44C0C0"/>
<stop offset="1" stop-color="#44C0C0"/>
</radialGradient>
<radialGradient id="paint1_radial_4_211" cx="0" cy="0" r="1" gradientTransform="matrix(-348.54 -68.5889 13.8467 -51.9132 400.466 235.929)" gradientUnits="userSpaceOnUse">
<stop offset="1" stop-color="#44C0C0"/>
</radialGradient>
<clipPath id="clip0_4_211">
<rect width="249" height="150" fill="white"/>
</clipPath>
</defs>
</svg>
