<svg preserveAspectRatio="none" width="100%" height="100%" overflow="visible" style="display: block;" viewBox="0 0 57.1426 34.2855" fill="none" xmlns="http://www.w3.org/2000/svg">
<g id="O5jMMHVb9">
<path id="EutRujr86" d="M34.2852 31.4279C34.2852 33.0059 35.5647 34.2854 37.1427 34.2854H42.8562C44.4342 34.2854 45.7137 33.0059 45.7137 31.4279V25.7144C45.7137 24.1364 44.4342 22.8569 42.8562 22.8569H37.1427C35.5647 22.8569 34.2852 24.1364 34.2852 25.7144V31.4279Z" fill="var(--fill-0, #1A1A1A)" fill-opacity="0.9"/>
<path id="J4i3yRF51" d="M22.8574 19.9997C22.8574 21.5777 24.1369 22.8572 25.7149 22.8572H31.4284C33.0064 22.8572 34.2859 21.5777 34.2859 19.9997V14.2862C34.2859 12.7082 33.0064 11.4287 31.4284 11.4287H25.7149C24.1369 11.4287 22.8574 12.7082 22.8574 14.2862V19.9997Z" fill="var(--fill-0, #1A1A1A)" fill-opacity="0.9"/>
<path id="HOClYIu43" d="M11.4285 31.428C11.4285 33.006 12.708 34.2855 14.286 34.2855H19.9995C21.5775 34.2855 22.857 33.006 22.857 31.428V25.7145C22.857 24.1365 21.5775 22.857 19.9995 22.857H14.286C12.708 22.857 11.4285 24.1365 11.4285 25.7145V31.428Z" fill="var(--fill-0, #1A1A1A)" fill-opacity="0.9"/>
<path id="iwJF3I9IW" d="M45.714 19.9995C45.714 21.5775 46.9935 22.857 48.5715 22.857H54.285C55.863 22.857 57.1425 21.5775 57.1425 19.9995V14.286C57.1425 12.708 55.863 11.4285 54.285 11.4285H48.5715C46.9935 11.4285 45.714 12.708 45.714 14.286V19.9995Z" fill="var(--fill-0, #1A1A1A)" fill-opacity="0.9"/>
<path id="bez2i27tj" d="M0 19.9995C0 21.5775 1.2795 22.857 2.8575 22.857H8.571C10.149 22.857 11.4285 21.5775 11.4285 19.9995V14.286C11.4285 12.708 10.149 11.4285 8.571 11.4285H2.8575C1.2795 11.4285 0 12.708 0 14.286V19.9995Z" fill="var(--fill-0, #1A1A1A)" fill-opacity="0.9"/>
<path id="Z1PDCQsZ2" d="M11.4285 8.571C11.4285 10.149 12.708 11.4285 14.286 11.4285H19.9995C21.5775 11.4285 22.857 10.149 22.857 8.571V2.8575C22.857 1.2795 21.5775 0 19.9995 0H14.286C12.708 0 11.4285 1.2795 11.4285 2.8575V8.571Z" fill="var(--fill-0, #1A1A1A)" fill-opacity="0.9"/>
<path id="LOA5MQwW1" d="M34.2852 8.571C34.2852 10.149 35.5647 11.4285 37.1427 11.4285H42.8562C44.4342 11.4285 45.7137 10.149 45.7137 8.571V2.8575C45.7137 1.2795 44.4342 4.76837e-07 42.8562 4.76837e-07H37.1427C35.5647 4.76837e-07 34.2852 1.2795 34.2852 2.8575V8.571Z" fill="var(--fill-0, #1A1A1A)" fill-opacity="0.9"/>
<path id="k18qbwOqt" d="M11.4288 25.713C11.4288 24.1365 12.7083 22.857 14.2863 22.857C12.7083 22.857 11.4288 21.5775 11.4288 19.9995C11.4288 21.552 10.1883 22.8165 8.64479 22.8555L8.57129 22.857C10.1493 22.857 11.4288 24.1365 11.4288 25.713Z" fill="var(--fill-0, #1A1A1A)" fill-opacity="0.9"/>
<path id="L8DBALDB1" d="M45.7159 25.713C45.7159 24.1365 46.9939 22.857 48.5719 22.857C46.9939 22.857 45.7159 21.5775 45.7159 19.9995C45.7159 21.552 44.4754 22.8165 42.9319 22.8555L42.8584 22.857C44.4364 22.857 45.7159 24.1365 45.7159 25.713Z" fill="var(--fill-0, #1A1A1A)" fill-opacity="0.9"/>
<path id="osRI2ov7e" d="M45.7159 14.2848C45.7159 12.7083 46.9939 11.4288 48.5719 11.4288C46.9939 11.4288 45.7159 10.1493 45.7159 8.57129C45.7159 10.1253 44.4754 11.3883 42.9319 11.4273L42.8584 11.4288C44.4364 11.4288 45.7159 12.7083 45.7159 14.2848Z" fill="var(--fill-0, #1A1A1A)" fill-opacity="0.9"/>
<path id="KrjoePYYO" d="M11.4288 14.2848C11.4288 12.7083 12.7083 11.4288 14.2863 11.4288C12.7083 11.4288 11.4288 10.1493 11.4288 8.57129C11.4288 10.1253 10.1883 11.3883 8.64479 11.4273L8.57129 11.4288C10.1493 11.4288 11.4288 12.7083 11.4288 14.2848Z" fill="var(--fill-0, #1A1A1A)" fill-opacity="0.9"/>
</g>
</svg>
