<svg preserveAspectRatio="none" width="100%" height="100%" overflow="visible" style="display: block;" viewBox="0 0 49.5238 49.4" fill="none" xmlns="http://www.w3.org/2000/svg">
<g id="hCI8YfLWZ">
<path id="N1nQkLJoS" d="M29.7141 37.1423C29.7141 38.5099 30.823 39.6188 32.1906 39.6188H37.1423C38.5099 39.6188 39.6188 38.5099 39.6188 37.1423V32.1906C39.6188 30.823 38.5099 29.7141 37.1423 29.7141H32.1906C30.823 29.7141 29.7141 30.823 29.7141 32.1906V37.1423Z" fill="var(--fill-0, #44C0C0)"/>
<path id="SeUzgl2MZ" d="M19.8094 27.2376C19.8094 28.6052 20.9183 29.7141 22.2859 29.7141H27.2376C28.6052 29.7141 29.7141 28.6052 29.7141 27.2376V22.2859C29.7141 20.9183 28.6052 19.8094 27.2376 19.8094H22.2859C20.9183 19.8094 19.8094 20.9183 19.8094 22.2859V27.2376Z" fill="var(--fill-0, #44C0C0)"/>
<path id="GY4N1cF7j" d="M9.9043 37.1423C9.9043 38.5099 11.0132 39.6188 12.3808 39.6188H17.3325C18.7001 39.6188 19.809 38.5099 19.809 37.1423V32.1906C19.809 30.823 18.7001 29.7141 17.3325 29.7141H12.3808C11.0132 29.7141 9.9043 30.823 9.9043 32.1906V37.1423Z" fill="var(--fill-0, #44C0C0)"/>
<path id="UfUGnvkVK" d="M19.8094 46.9235C19.8094 48.2911 20.9183 49.4 22.2859 49.4H27.2376C28.6052 49.4 29.7141 48.2911 29.7141 46.9235V41.9718C29.7141 40.6042 28.6052 39.4953 27.2376 39.4953H22.2859C20.9183 39.4953 19.8094 40.6042 19.8094 41.9718V46.9235Z" fill="var(--fill-0, #44C0C0)"/>
<path id="ZPwlBeLKu" d="M19.8094 7.4282C19.8094 8.7958 20.9183 9.9047 22.2859 9.9047H27.2376C28.6052 9.9047 29.7141 8.7958 29.7141 7.4282V2.4765C29.7141 1.1089 28.6052 4.76837e-08 27.2376 4.76837e-08H22.2859C20.9183 4.76837e-08 19.8094 1.1089 19.8094 2.4765V7.4282Z" fill="var(--fill-0, #44C0C0)"/>
<path id="AKkOvOAe8" d="M39.6191 27.2375C39.6191 28.6051 40.728 29.714 42.0956 29.714H47.0473C48.4149 29.714 49.5238 28.6051 49.5238 27.2375V22.2858C49.5238 20.9182 48.4149 19.8093 47.0473 19.8093H42.0956C40.728 19.8093 39.6191 20.9182 39.6191 22.2858V27.2375Z" fill="var(--fill-0, #44C0C0)"/>
<path id="b3xsCzIop" d="M4.76837e-08 27.2376C4.76837e-08 28.6052 1.1089 29.7141 2.4765 29.7141H7.4282C8.7958 29.7141 9.9047 28.6052 9.9047 27.2376V22.2859C9.9047 20.9183 8.7958 19.8094 7.4282 19.8094H2.4765C1.1089 19.8094 4.76837e-08 20.9183 4.76837e-08 22.2859V27.2376Z" fill="var(--fill-0, #44C0C0)"/>
<path id="z8I2fXljR" d="M9.9043 17.333C9.9043 18.7006 11.0132 19.8095 12.3808 19.8095H17.3325C18.7001 19.8095 19.809 18.7006 19.809 17.333V12.3813C19.809 11.0137 18.7001 9.90479 17.3325 9.90479H12.3808C11.0132 9.90479 9.9043 11.0137 9.9043 12.3813V17.333Z" fill="var(--fill-0, #44C0C0)"/>
<path id="vxJAPBx9s" d="M29.7141 17.3329C29.7141 18.7005 30.823 19.8094 32.1906 19.8094H37.1423C38.5099 19.8094 39.6188 18.7005 39.6188 17.3329V12.3812C39.6188 11.0136 38.5099 9.9047 37.1423 9.9047H32.1906C30.823 9.9047 29.7141 11.0136 29.7141 12.3812V17.3329Z" fill="var(--fill-0, #44C0C0)"/>
<path id="WzlFgzJA6" d="M19.8094 42.0953C19.8094 40.7277 20.9183 39.6201 22.2846 39.6201C20.9183 39.6201 19.8094 38.5112 19.8094 37.1436C19.8094 38.4891 18.7343 39.585 17.3966 39.6188L17.3329 39.6201C18.7005 39.6201 19.8094 40.7277 19.8094 42.0953Z" fill="var(--fill-0, #44C0C0)"/>
<path id="b686N7tFK" d="M9.90423 32.1892C9.90423 30.8229 11.0131 29.714 12.3807 29.714C11.0131 29.714 9.90423 28.6051 9.90423 27.2375C9.90423 28.583 8.82913 29.6789 7.49143 29.7127L7.42773 29.714C8.79533 29.714 9.90423 30.8229 9.90423 32.1892Z" fill="var(--fill-0, #44C0C0)"/>
<path id="DvsTSycki" d="M39.6201 32.1893C39.6201 30.823 40.7277 29.7141 42.0953 29.7141C40.7277 29.7141 39.6201 28.6052 39.6201 27.2376C39.6201 28.5831 38.545 29.679 37.2073 29.7128L37.1436 29.7141C38.5112 29.7141 39.6201 30.823 39.6201 32.1893Z" fill="var(--fill-0, #44C0C0)"/>
<path id="AI3BBgPZf" d="M39.6201 22.2846C39.6201 20.9183 40.7277 19.8094 42.0953 19.8094C40.7277 19.8094 39.6201 18.7005 39.6201 17.3329C39.6201 18.6797 38.545 19.7743 37.2073 19.8081L37.1436 19.8094C38.5112 19.8094 39.6201 20.9183 39.6201 22.2846Z" fill="var(--fill-0, #44C0C0)"/>
<path id="DXTiXNi4X" d="M19.8094 12.3812C19.8094 11.0136 20.9183 9.9047 22.2846 9.9047C20.9183 9.9047 19.8094 8.7958 19.8094 7.4282C19.8094 8.775 18.7343 9.8696 17.3966 9.9034L17.3329 9.9047C18.7005 9.9047 19.8094 11.0136 19.8094 12.3812Z" fill="var(--fill-0, #44C0C0)"/>
<path id="gtLYiPB2u" d="M29.7138 12.3812C29.7138 11.0136 30.8227 9.90472 32.189 9.90472C30.8227 9.90472 29.7138 8.79582 29.7138 7.42822C29.7138 8.77502 28.6387 9.86962 27.301 9.90342L27.2373 9.90472C28.6049 9.90472 29.7138 11.0136 29.7138 12.3812Z" fill="var(--fill-0, #44C0C0)"/>
<path id="KaprqP569" d="M9.90423 22.2847C9.90423 20.9184 11.0131 19.8095 12.3807 19.8095C11.0131 19.8095 9.90423 18.7006 9.90423 17.333C9.90423 18.6798 8.82913 19.7744 7.49143 19.8082L7.42773 19.8095C8.79533 19.8095 9.90423 20.9184 9.90423 22.2847Z" fill="var(--fill-0, #44C0C0)"/>
<path id="xmRIlbOij" d="M29.7138 42.0953C29.7138 40.7277 30.8227 39.6201 32.189 39.6201C30.8227 39.6201 29.7138 38.5112 29.7138 37.1436C29.7138 38.4891 28.6387 39.585 27.301 39.6188L27.2373 39.6201C28.6049 39.6201 29.7138 40.7277 29.7138 42.0953Z" fill="var(--fill-0, #44C0C0)"/>
</g>
</svg>
