<svg preserveAspectRatio="none" width="100%" height="100%" overflow="visible" style="display: block;" viewBox="0 0 20 20" fill="none" xmlns="http://www.w3.org/2000/svg">
<g id="star">
<path id="Vector" d="M11.4416 2.92491L12.9083 5.85824C13.1083 6.26658 13.6416 6.65824 14.0916 6.73324L16.7499 7.17491C18.4499 7.45824 18.8499 8.69158 17.6249 9.90824L15.5583 11.9749C15.2083 12.3249 15.0166 12.9999 15.1249 13.4832L15.7166 16.0416C16.1833 18.0666 15.1083 18.8499 13.3166 17.7916L10.8249 16.3166C10.3749 16.0499 9.63326 16.0499 9.17492 16.3166L6.68326 17.7916C4.89992 18.8499 3.81659 18.0582 4.28326 16.0416L4.87492 13.4832C4.98326 12.9999 4.79159 12.3249 4.44159 11.9749L2.37492 9.90824C1.15826 8.69158 1.54992 7.45824 3.24992 7.17491L5.90826 6.73324C6.34992 6.65824 6.88326 6.26658 7.08326 5.85824L8.54992 2.92491C9.34992 1.33324 10.6499 1.33324 11.4416 2.92491Z" fill="var(--fill-0, #DFC500)"/>
<path id="Vector_2" opacity="0" d="M20 0H0V20H20V0Z" fill="var(--fill-0, #DFC500)"/>
</g>
</svg>
