<svg preserveAspectRatio="none" width="100%" height="100%" overflow="visible" style="display: block;" viewBox="0 0 32.3077 28" fill="none" xmlns="http://www.w3.org/2000/svg">
<path id="Vector" d="M28.4652 19.3352L31.2014 18.3546L30.4266 16.6066L29.3393 14.1536L26.6031 15.1328L26.292 15.2441L21.8325 16.8392L19.0978 17.8184L17.2685 18.4731L11.7071 20.463C11.5486 20.5205 11.3887 20.5686 11.2273 20.6116L12.43 17.771L17.3284 6.19957L20.9387 14.7265L25.6713 13.0323L19.8959 0H14.7617L7.10736 17.2706L6.11278 19.5161C5.34677 18.9002 4.7341 18.0797 4.37263 17.1005L0 18.664C0.817131 20.8722 2.33382 22.6353 4.21563 23.7968L3.28094 25.9052L2.35354 28H8.09974L8.20563 27.7473L8.27719 27.5772L9.21481 25.3625C9.39664 25.3726 9.57846 25.3769 9.76029 25.3769C10.9367 25.3769 12.1321 25.178 13.2997 24.7609L14.8413 24.2089L20.8883 22.0459L23.6238 21.0668L24.5198 23.1809L26.56 28H32.3077L29.3984 21.4357L28.4681 19.3345L28.4652 19.3352Z" fill="var(--fill-0, #44C0C0)"/>
</svg>
